<?xml version="1.0" encoding="iso-8859-1"?>

<!DOCTYPE svg PUBLIC "-//W3C//DTD SVG 1.1//EN" "http://www.w3.org/Graphics/SVG/1.1/DTD/svg11.dtd">
<!-- Uploaded to: SVG Repo, www.svgrepo.com, Generator: SVG Repo Mixer Tools -->
<svg version="1.1" id="_x34_" xmlns="http://www.w3.org/2000/svg" xmlns:xlink="http://www.w3.org/1999/xlink" 
	 viewBox="0 0 512 512"  xml:space="preserve">
<g>
	<g>
		<g>
			<path style="fill:#DBDCDC;" d="M153.506,128.216v363.035H84.129V128.216c0-17.604,20.325-43.405,34.695-43.405
				C133.176,84.812,153.506,110.612,153.506,128.216z"/>
			<rect x="84.129" y="155.308" style="fill:#BCBCBB;" width="69.377" height="13.951"/>
			<rect x="84.129" y="241.741" style="fill:#BCBCBB;" width="69.377" height="13.933"/>
		</g>
		<g>
			<path style="fill:#DBDCDC;" d="M429.498,128.216v363.035H360.12V128.216c0-17.604,20.325-43.405,34.704-43.405
				C409.181,84.812,429.498,110.612,429.498,128.216z"/>
			<rect x="360.12" y="155.308" style="fill:#BCBCBB;" width="69.378" height="13.951"/>
			<rect x="360.12" y="241.741" style="fill:#BCBCBB;" width="69.378" height="13.933"/>
		</g>
	</g>
	<path style="fill:#DB471D;" d="M345.46,121.766v369.486H166.535V121.766C166.535,72.366,218.951,0,255.998,0
		C293.054,0,345.46,72.366,345.46,121.766z"/>
	<rect x="166.535" y="126.051" style="fill:#DF6548;" width="178.924" height="13.934"/>
	<rect x="166.535" y="216.645" style="fill:#DF6548;" width="178.924" height="13.942"/>
	<path style="fill:#FFFFFF;" d="M443.485,431.304c-1.279,13.39-8.107,18.744-19.03,20.348c-2.708,0.401-5.657,0.578-8.851,0.578
		H96.391c-3.189,0-6.147-0.178-8.842-0.57c-10.936-1.612-17.765-6.966-19.034-20.356c-1.461-15.332,10.343-25.355,45.026-50.175
		c38.218-27.368,83.516-60.821,89.266-128.813c0.397-4.748,0.61-9.657,0.61-14.762v-87.815c0-0.909,0.032-1.853,0.089-2.788
		c1.474-27.555,24.415-65.516,52.491-65.516s51.021,37.961,52.495,65.516c0.054,0.935,0.08,1.879,0.08,2.788v87.815
		c0,5.105,0.214,10.014,0.615,14.762c5.746,67.992,51.043,101.445,89.271,128.813C433.141,405.949,444.945,415.971,443.485,431.304z
		"/>
	<path style="fill:#BEDFE0;" d="M286.662,184.654c0,10.646-61.332,10.646-61.332,0c0-10.637,13.737-19.262,30.669-19.262
		C272.934,165.392,286.662,174.016,286.662,184.654z"/>
	<g>
		<polygon style="fill:#5A5553;" points="251.512,512 244.786,464.925 211.146,464.925 204.425,512 		"/>
		<polygon style="fill:#5A5553;" points="307.575,512 300.845,464.925 267.214,464.925 260.483,512 		"/>
	</g>
	<path style="fill:#DBDCDC;" d="M215.538,400.64c0,14.236-11.555,25.791-25.791,25.791c-14.24,0-25.791-11.555-25.791-25.791
		c0-14.246,11.55-25.782,25.791-25.782C203.983,374.857,215.538,386.394,215.538,400.64z"/>
	<rect x="205.115" y="438.279" style="fill:#FFFFFF;" width="101.761" height="29.265"/>
	<path style="fill:#5A5553;" d="M267.152,474.521c0,6.156-4.989,11.163-11.154,11.163l0,0c-6.161,0-11.153-5.007-11.153-11.163
		v-90.604c0-6.164,4.993-11.153,11.153-11.153l0,0c6.165,0,11.154,4.989,11.154,11.153V474.521z"/>
	<path style="fill:#5A5553;" d="M308.493,146.951H203.507c1.474-27.555,24.415-65.516,52.491-65.516
		S307.019,119.396,308.493,146.951z"/>
	<path style="fill:#5A5553;" d="M202.807,252.316v46.567c0,19.519-29.27,57.159-57.15,79.448
		c-27.881,22.309-48.834,40.366-54.366,44.607c-8.183,6.281-12.361,17.773-3.741,28.722c-10.936-1.612-17.765-6.966-19.034-20.356
		c-1.461-15.332,10.343-25.355,45.026-50.175C151.759,353.761,197.057,320.308,202.807,252.316z"/>
	<path style="fill:#5A5553;" d="M309.188,252.316v46.567c0,19.519,29.278,57.159,57.15,79.448
		c27.881,22.309,48.838,40.366,54.366,44.607c8.188,6.281,12.361,17.773,3.75,28.722c10.922-1.612,17.751-6.966,19.03-20.356
		c1.461-15.332-10.343-25.355-45.026-50.175C360.236,353.761,314.935,320.308,309.188,252.316z"/>
</g>
</svg>